<svg height="121" viewBox="0 0 533.333 121" width="533.333" xmlns="http://www.w3.org/2000/svg"><g fill="#fff"><path d="M415.201 44.561c-2.486-3.586-5.419-5.778-8.785-6.59-3.38-.813-7.412-1.072-12.103-.78l-10.13.638 3.206 51.443 11.641-.727c2.555-.156 4.549-.353 5.988-.58 1.429-.229 2.915-.665 4.427-1.314 1.52-.647 2.819-1.51 3.895-2.577 4.862-4.657 6.964-12.3 6.298-22.921-.464-7.479-1.944-13.013-4.437-16.592"/><path d="M338.196 11.781l-24.538 27.452 1.376 26.092c.646-.18 1.313-.367 1.878-.518l1.877-.506a57.637 57.637 0 0 1 3.49-.882c1.7-5.216 6.545-9.012 12.331-9.012 7.191 0 13.017 5.832 13.017 13.022 0 7.195-5.826 13.026-13.017 13.026-4.643 0-8.692-2.449-10.999-6.103a141.908 141.908 0 0 0-8.002 1.888l1.06 20.108 27.542 24.153 187.566-10.378-5.923-108.716-187.658 10.374zm96.601 61.035c-.551 3.81-1.574 7.273-3.039 10.387-1.46 3.123-3.413 5.952-5.85 8.496a26.636 26.636 0 0 1-6.396 4.809c-2.342 1.26-4.894 2.188-7.639 2.816-2.744.623-5.862 1.034-9.333 1.256l-20.022 1.25c-2.794.176-4.916-.117-6.387-.871-1.46-.753-2.457-1.889-2.983-3.392-.529-1.514-.869-3.49-1.019-5.936L368.65 36.04c-.205-3.305.387-5.75 1.774-7.323 1.393-1.575 3.742-2.467 7.05-2.675l20.012-1.242c5.203-.331 9.704-.129 13.484.606 3.78.733 7.272 2.335 10.471 4.795 8.321 6.267 12.906 16.292 13.769 30.082.288 4.548.145 8.735-.413 12.533m78.807 20.737c-1.383 1.555-3.101 2.396-5.172 2.525-1.201.08-2.249-.077-3.139-.448a6.252 6.252 0 0 1-2.277-1.635c-.633-.695-1.34-1.799-2.104-3.281-.765-1.5-1.426-2.81-1.988-3.957l-4.212-9.289-30.814 1.927-3.017 9.943c-1.173 3.887-2.218 6.52-3.138 7.909-.917 1.388-2.512 2.153-4.787 2.3-1.931.112-3.687-.486-5.247-1.798-1.58-1.327-2.419-2.89-2.525-4.682a10.544 10.544 0 0 1 .313-3.229c.276-1.128.746-2.701 1.417-4.711l16.323-50.44c.459-1.445 1.011-3.184 1.672-5.211.646-2.036 1.374-3.734 2.172-5.096.793-1.362 1.882-2.496 3.265-3.399 1.374-.899 3.114-1.415 5.223-1.547 2.136-.129 3.948.166 5.423.884 1.483.72 2.707 1.694 3.669 2.913a23.08 23.08 0 0 1 2.48 3.969 265.01 265.01 0 0 1 2.663 5.728l22.86 47.674c1.778 3.628 2.729 6.291 2.838 7.971.105 1.762-.527 3.422-1.898 4.98"/><path d="M467.206 67.611l22.648-1.415-13.375-30.57zm-402.102 32.66L44.75 68.284l10.539-9.662c5.377-4.843 8.067-8.721 8.067-11.63 0-2.375-.826-4.349-2.471-5.918-1.648-1.58-3.707-2.367-6.179-2.367-2.083 0-3.852.534-5.301 1.603-1.454 1.064-3.563 3.05-6.323 5.955L20.763 69.671V21.559c0-4.073-.894-7.15-2.685-9.236-1.796-2.08-4.214-3.122-7.266-3.122-3.153 0-5.578 1.154-7.273 3.451C1.845 14.956 1 18.313 1 22.718v84.605c0 3.966.868 6.974 2.613 9.004 1.741 2.039 4.145 3.058 7.199 3.058 2.613 0 4.925-1.027 6.938-3.094 2.013-2.056 3.013-5.002 3.013-8.824V91.694l10.761-10.179 17.519 28.778c2.224 3.45 3.995 5.823 5.304 7.125 1.305 1.312 3.172 1.966 5.598 1.966 2.806 0 5.071-.907 6.792-2.726 1.723-1.821 2.575-4.305 2.575-7.449 0-1.119-.32-2.294-.976-3.523-.654-1.24-1.741-3.047-3.232-5.415m162.95-61.566c-2.964 0-5.358.994-7.198 2.988-1.847 1.981-2.763 4.936-2.763 8.863v24.127c0 9.501-.559 15.652-1.674 18.463-1.353 3.194-3.506 5.789-6.47 7.78-2.948 1.981-6.107 2.976-9.445 2.976-3.442 0-6.171-.885-8.179-2.653-2.013-1.766-3.405-4.213-4.175-7.345-.774-3.112-1.166-6.984-1.166-11.592V50.556c0-3.927-.924-6.881-2.753-8.863-1.854-1.994-4.273-2.988-7.274-2.988-2.959 0-5.335.985-7.12 2.942-1.798 1.969-2.693 4.937-2.693 8.909v39.318c0 7.895 1.233 13.955 3.708 18.175 2.083 3.483 5.023 6.219 8.828 8.215 3.801 1.982 8.105 2.977 12.904 2.977 3.97 0 7.505-.499 10.61-1.491 3.102-.994 5.958-2.513 8.574-4.542 2.616-2.036 5.113-4.556 7.491-7.564v2.55c0 3.538.881 6.288 2.655 8.248 1.767 1.96 4.004 2.941 6.719 2.941 2.709 0 4.932-.947 6.65-2.829 1.715-1.892 2.577-4.729 2.577-8.504V50.556c0-3.972-.895-6.94-2.689-8.909-1.792-1.957-4.166-2.942-7.117-2.942m-87.062-1.306c-2.954 0-5.352 1.009-7.199 3.033-1.516 1.671-2.395 4.023-2.66 7.024-5.879-5.042-13.196-8.027-21.128-8.027-19.411 0-35.144 17.882-35.144 39.947s15.733 39.951 35.144 39.951c8.229 0 15.793-3.219 21.779-8.614.337 2.403 1.165 4.352 2.484 5.843 1.767 1.997 4.009 2.999 6.725 2.999 2.712 0 4.93-.967 6.653-2.894 1.715-1.916 2.583-4.805 2.583-8.654l.574-58.542c0-4.046-.891-7.067-2.684-9.068-1.799-1.995-4.174-2.998-7.127-2.998m-29.64 65.338c-10.604 0-19.203-10.456-19.203-23.361 0-12.898 8.599-23.362 19.203-23.362 10.601 0 19.201 10.464 19.201 23.362 0 12.905-8.6 23.361-19.201 23.361m217.231-36.805l-.977.151-.335-3.438-2.296.262c-.011.002-1.019.144-2.695.511-.957.21-2.072.477-3.492.883l-1.878.506c-.562.15-1.229.337-1.876.517-.326.092-.595.16-.954.263l-2.067.583.705 3.163c-5.295 1.444-11.636 3.443-18.28 6.205a226.908 226.908 0 0 0-13.835 6.326V54.769h4.864c3.533 0 6.31-.432 8.326-1.309 2.01-.868 3.017-2.928 3.017-6.174 0-4.56-3.781-6.834-11.342-6.834h-4.864V35.73c0-3.922.508-6.945 1.527-9.048 1.013-2.106 3.31-3.164 6.9-3.164 1.306 0 2.901.148 4.798.436 1.884.297 3.219.439 3.999.439 1.645 0 3.069-.653 4.287-1.962 1.207-1.313 1.819-2.888 1.819-4.722 0-5.671-5.797-8.506-17.378-8.506-6.537 0-11.683.834-15.444 2.509-3.751 1.671-6.419 4.336-7.997 7.994-1.572 3.657-2.36 8.583-2.36 14.787v5.959h-4.719c-6.643 0-9.962 2.374-9.962 7.129 0 2.125.804 3.857 2.398 5.191 1.6 1.332 3.877 1.997 6.833 1.997h5.45v52.556c0 3.919.937 6.908 2.804 8.969 1.862 2.065 4.202 3.092 7.011 3.092 2.953 0 5.365-1.026 7.229-3.092 1.867-2.061 2.805-5.05 2.805-8.969V90.133a222.53 222.53 0 0 1 16.444-7.668c6.864-2.857 13.329-4.843 18.563-6.225a142.024 142.024 0 0 1 8.003-1.887 92.497 92.497 0 0 1 3.627-.677l2.19-.309z"/></g></svg>